<svg width="24" height="24" viewBox="0 0 24 24" fill="none" xmlns="http://www.w3.org/2000/svg">
<path d="M4.88839 18.9376H7.98214V9.64293H4.88839V18.9376ZM8.18302 6.77686C8.16964 5.86615 7.51339 5.16972 6.45535 5.16972C5.39731 5.16972 4.70089 5.86615 4.70089 6.77686C4.70089 7.66078 5.37052 8.38399 6.41518 8.38399H6.42856C7.51339 8.38399 8.18302 7.66078 8.18302 6.77686ZM16.0179 18.9376H19.1116V13.6072C19.1116 10.7545 17.5848 9.42862 15.5491 9.42862C13.8884 9.42862 13.1518 10.3527 12.75 10.9956H12.7768V9.64291H9.68302C9.68302 9.64291 9.72319 10.5134 9.68302 18.9375H12.7768V13.7411C12.7768 13.4733 12.7902 13.192 12.8705 12.9911C13.0982 12.442 13.6071 11.8661 14.4643 11.8661C15.5759 11.8661 16.0179 12.7099 16.0179 13.9688V18.9376ZM22.2857 5.57149V18.4286C22.2857 20.5581 20.558 22.2858 18.4286 22.2858H5.57143C3.44197 22.2858 1.71429 20.5581 1.71429 18.4286V5.57149C1.71429 3.44203 3.44197 1.71436 5.57143 1.71436H18.4286C20.558 1.71436 22.2857 3.44203 22.2857 5.57149Z" fill="#505050"/>
</svg>
