<svg width="72" height="16" viewBox="0 0 72 16" fill="none" xmlns="http://www.w3.org/2000/svg">
<g clip-path="url(#clip0_1_67)">
<path d="M12.4185 0.60918C10.4923 0.633796 6.47385 0.713796 5.22462 1.0338C4.3077 1.27995 3.63078 2.01841 3.38462 2.87995C2.96001 4.54149 2.96616 7.9938 2.96616 7.9938C2.96616 7.9938 2.96001 11.4461 3.38462 13.1076C3.62462 14.0307 4.36308 14.7076 5.22462 14.9538C6.88001 15.3846 13.4708 15.3723 13.4708 15.3723C13.4708 15.3723 20.0554 15.3784 21.7169 14.9538C22.64 14.7076 23.3108 13.9692 23.5569 13.1076C23.9815 11.4461 23.9754 7.9938 23.9754 7.9938C23.9754 7.9938 24.0431 4.54149 23.5569 2.87995C23.3108 1.95687 22.5785 1.27995 21.7169 1.0338C20.0677 0.603026 13.4769 0.60918 13.4769 0.60918C13.4769 0.60918 13.0646 0.603027 12.4246 0.60918H12.4185ZM56.8554 1.16303V14.2584H58.5662L58.7569 13.4153H58.8123C58.9969 13.723 59.2492 13.9569 59.5569 14.1415C59.8646 14.3261 60.2215 14.3876 60.5908 14.3876C61.2677 14.3876 61.8154 14.0861 62.1231 13.4092C62.4308 12.7323 62.6215 11.7476 62.6215 10.3938V8.91687C62.6215 7.93226 62.5539 7.13226 62.4308 6.51687C62.3077 5.96918 62.1231 5.53841 61.8154 5.23072C61.5077 4.98457 61.1385 4.86764 60.6462 4.86764C60.2831 4.86764 59.92 4.98456 59.6123 5.16918C59.3108 5.3538 58.9908 5.66149 58.8677 6.03072V1.16918H56.8492L56.8554 1.16303ZM26.0923 1.64303L28.4923 10.1969L28.6031 14.3261H30.64V10.1969L33.0215 1.64303H30.9477L30.0862 5.5261C29.84 6.68918 29.6492 7.48918 29.5877 7.98149H29.5323C29.4092 7.30457 29.2185 6.50456 29.0339 5.5261L28.1908 1.64303H26.0985H26.0923ZM44.3015 1.64303V3.31072H46.3939V14.3261H48.4123V3.31072H50.5046C50.5046 3.31072 50.5046 1.64303 50.4492 1.64303H44.3015ZM11.3846 4.7938L16.8615 7.98149L11.3846 11.1138V4.78764V4.7938ZM66.4 4.84918C65.3539 4.84918 64.6215 5.21226 64.1908 5.82764C63.7662 6.43687 63.5815 7.42764 63.5815 8.84303V10.4369C63.5815 11.7907 63.7662 12.8369 64.1908 13.4523C64.6215 14.1292 65.2985 14.4307 66.3446 14.4307C67.2062 14.4307 67.8092 14.2461 68.3015 13.8153C68.7323 13.3846 68.9723 12.7753 68.9723 11.9138V11.6061L67.1877 11.4769C67.1877 12.0923 67.1385 12.4615 67.0154 12.7076C66.9539 12.9538 66.7077 13.0892 66.4 13.0892C66.2154 13.0892 66.0246 13.0215 65.9015 12.8984C65.7785 12.7138 65.7169 12.5353 65.6554 12.2276C65.5939 11.92 65.6 11.483 65.6 10.8676V10.3876L69.1139 10.3323V8.71995C69.1139 7.73533 69.0523 7.00918 68.8677 6.45533C68.7446 5.90764 68.4308 5.47687 68.0615 5.23072C67.6308 4.98457 67.1508 4.86764 66.4123 4.86764L66.4 4.84918ZM35.3292 4.90456C34.6585 4.90456 34.0923 5.01533 33.6615 5.32303C33.2308 5.56918 32.9231 6.01226 32.7446 6.62764C32.56 7.24303 32.4369 8.02457 32.4369 9.00918V10.3692C32.4369 11.2923 32.4985 12.0799 32.6831 12.6953C32.8062 13.2492 33.1139 13.6923 33.5446 14C33.9692 14.3076 34.5969 14.4184 35.2739 14.48C36.0062 14.48 36.5539 14.3076 36.9846 14.0615C37.4092 13.8153 37.6554 13.3907 37.9015 12.7753C38.1415 12.16 38.2031 11.36 38.2031 10.3753V9.01533C38.2031 8.03072 38.08 7.24918 37.9015 6.6338C37.7169 6.0861 37.4092 5.63687 36.9846 5.32918C36.5539 5.02149 36.0123 4.91072 35.3354 4.91072L35.3292 4.90456ZM42.8246 4.95995V12.283C42.7631 12.4676 42.6462 12.5784 42.4615 12.7015C42.3385 12.8246 42.1477 12.8923 41.9631 12.8923C41.7785 12.8923 41.6062 12.8307 41.5446 12.6461C41.4831 12.4615 41.4339 12.2153 41.4339 11.7846V5.02149H39.3415V11.92C39.3415 12.7815 39.4523 13.3907 39.76 13.8215C40.0615 14.2523 40.5046 14.4369 41.12 14.4369C41.9815 14.4369 42.6462 14.0123 43.0769 13.1507H43.1323L43.3231 14.2461H44.9169V5.02149C44.9169 5.02149 42.8246 5.02149 42.8246 4.9661V4.95995ZM53.4769 4.95995V12.283C53.4154 12.4676 53.2985 12.5784 53.1139 12.7015C52.9908 12.8246 52.8 12.8923 52.6154 12.8923C52.4308 12.8923 52.2585 12.8307 52.1969 12.6461C52.1354 12.4615 52.0677 12.2153 52.0677 11.7846V5.02149H49.9754V11.92C49.9754 12.7815 50.1046 13.3907 50.4123 13.8215C50.72 14.2523 51.1385 14.4369 51.7539 14.4369C52.6092 14.4369 53.2985 14.0123 53.7292 13.1507H53.7846L53.9569 14.2461H55.5692V5.02149C55.5692 5.02149 53.4769 5.02149 53.4769 4.9661V4.95995ZM66.3385 6.2461C66.5846 6.2461 66.6954 6.3138 66.8185 6.43687C66.9415 6.62149 67.0031 6.79995 67.0646 7.10764C67.1262 7.41533 67.12 7.85226 67.12 8.46764V9.13841H65.5815V8.46764C65.5815 7.85226 65.5816 7.41533 65.6369 7.10764C65.6369 6.86149 65.7046 6.61533 65.8277 6.49226C65.9508 6.30764 66.1415 6.2461 66.3262 6.2461H66.3385ZM35.2677 6.31995C35.5754 6.31995 35.76 6.43072 35.8831 6.73841C36 7.0461 36.0554 7.53841 36.0554 8.21533V11.0953C36.0554 11.7723 36.0062 12.2646 35.8831 12.5723C35.76 12.88 35.5754 12.9907 35.2677 12.9907C34.96 12.9907 34.7815 12.88 34.6585 12.5723C34.5354 12.2646 34.4677 11.7723 34.4677 11.0953V8.21533C34.4677 7.53841 34.5354 7.0461 34.6585 6.73841C34.7815 6.43072 34.96 6.31995 35.2677 6.31995ZM59.6862 6.37533C59.8708 6.37533 60.0616 6.43687 60.1846 6.62149C60.3077 6.8061 60.3508 7.0338 60.4123 7.46457C60.4739 7.8338 60.4862 8.3938 60.4862 9.13226L60.5415 10.3015C60.5415 10.9784 60.5415 11.5261 60.4862 11.8953C60.4246 12.2646 60.3692 12.5599 60.1846 12.683C60.0616 12.8676 59.8769 12.9292 59.6308 12.9292C59.4462 12.9292 59.3169 12.8799 59.1323 12.8184C59.0092 12.7569 58.8923 12.6399 58.7692 12.4553V7.22457C58.8308 6.97841 58.9477 6.7938 59.1323 6.60918C59.3169 6.42456 59.5015 6.36303 59.6862 6.36303V6.37533Z" fill="white" stroke="black" stroke-opacity="0.15" stroke-width="1.23077"/>
<path d="M12.4185 0.60918C10.4923 0.633796 6.47385 0.713796 5.22462 1.0338C4.3077 1.27995 3.63078 2.01841 3.38462 2.87995C2.96001 4.54149 2.96616 7.9938 2.96616 7.9938C2.96616 7.9938 2.96001 11.4461 3.38462 13.1076C3.62462 14.0307 4.36308 14.7076 5.22462 14.9538C6.88001 15.3846 13.4708 15.3723 13.4708 15.3723C13.4708 15.3723 20.0554 15.3784 21.7169 14.9538C22.64 14.7076 23.3108 13.9692 23.5569 13.1076C23.9815 11.4461 23.9754 7.9938 23.9754 7.9938C23.9754 7.9938 24.0431 4.54149 23.5569 2.87995C23.3108 1.95687 22.5785 1.27995 21.7169 1.0338C20.0677 0.603026 13.4769 0.60918 13.4769 0.60918C13.4769 0.60918 13.0646 0.603027 12.4246 0.60918H12.4185ZM56.8554 1.16303V14.2584H58.5662L58.7569 13.4153H58.8123C58.9969 13.723 59.2492 13.9569 59.5569 14.1415C59.8646 14.3261 60.2215 14.3876 60.5908 14.3876C61.2677 14.3876 61.8154 14.0861 62.1231 13.4092C62.4308 12.7323 62.6215 11.7476 62.6215 10.3938V8.91687C62.6215 7.93226 62.5539 7.13226 62.4308 6.51687C62.3077 5.96918 62.1231 5.53841 61.8154 5.23072C61.5077 4.98457 61.1385 4.86764 60.6462 4.86764C60.2831 4.86764 59.92 4.98456 59.6123 5.16918C59.3108 5.3538 58.9908 5.66149 58.8677 6.03072V1.16918H56.8492L56.8554 1.16303ZM26.0923 1.64303L28.4923 10.1969L28.6031 14.3261H30.64V10.1969L33.0215 1.64303H30.9477L30.0862 5.5261C29.84 6.68918 29.6492 7.48918 29.5877 7.98149H29.5323C29.4092 7.30457 29.2185 6.50456 29.0339 5.5261L28.1908 1.64303H26.0985H26.0923ZM44.3015 1.64303V3.31072H46.3939V14.3261H48.4123V3.31072H50.5046C50.5046 3.31072 50.5046 1.64303 50.4492 1.64303H44.3015ZM11.3846 4.7938L16.8615 7.98149L11.3846 11.1138V4.78764V4.7938ZM66.4 4.84918C65.3539 4.84918 64.6215 5.21226 64.1908 5.82764C63.7662 6.43687 63.5815 7.42764 63.5815 8.84303V10.4369C63.5815 11.7907 63.7662 12.8369 64.1908 13.4523C64.6215 14.1292 65.2985 14.4307 66.3446 14.4307C67.2062 14.4307 67.8092 14.2461 68.3015 13.8153C68.7323 13.3846 68.9723 12.7753 68.9723 11.9138V11.6061L67.1877 11.4769C67.1877 12.0923 67.1385 12.4615 67.0154 12.7076C66.9539 12.9538 66.7077 13.0892 66.4 13.0892C66.2154 13.0892 66.0246 13.0215 65.9015 12.8984C65.7785 12.7138 65.7169 12.5353 65.6554 12.2276C65.5939 11.92 65.6 11.483 65.6 10.8676V10.3876L69.1139 10.3323V8.71995C69.1139 7.73533 69.0523 7.00918 68.8677 6.45533C68.7446 5.90764 68.4308 5.47687 68.0615 5.23072C67.6308 4.98457 67.1508 4.86764 66.4123 4.86764L66.4 4.84918ZM35.3292 4.90456C34.6585 4.90456 34.0923 5.01533 33.6615 5.32303C33.2308 5.56918 32.9231 6.01226 32.7446 6.62764C32.56 7.24303 32.4369 8.02457 32.4369 9.00918V10.3692C32.4369 11.2923 32.4985 12.0799 32.6831 12.6953C32.8062 13.2492 33.1139 13.6923 33.5446 14C33.9692 14.3076 34.5969 14.4184 35.2739 14.48C36.0062 14.48 36.5539 14.3076 36.9846 14.0615C37.4092 13.8153 37.6554 13.3907 37.9015 12.7753C38.1415 12.16 38.2031 11.36 38.2031 10.3753V9.01533C38.2031 8.03072 38.08 7.24918 37.9015 6.6338C37.7169 6.0861 37.4092 5.63687 36.9846 5.32918C36.5539 5.02149 36.0123 4.91072 35.3354 4.91072L35.3292 4.90456ZM42.8246 4.95995V12.283C42.7631 12.4676 42.6462 12.5784 42.4615 12.7015C42.3385 12.8246 42.1477 12.8923 41.9631 12.8923C41.7785 12.8923 41.6062 12.8307 41.5446 12.6461C41.4831 12.4615 41.4339 12.2153 41.4339 11.7846V5.02149H39.3415V11.92C39.3415 12.7815 39.4523 13.3907 39.76 13.8215C40.0615 14.2523 40.5046 14.4369 41.12 14.4369C41.9815 14.4369 42.6462 14.0123 43.0769 13.1507H43.1323L43.3231 14.2461H44.9169V5.02149C44.9169 5.02149 42.8246 5.02149 42.8246 4.9661V4.95995ZM53.4769 4.95995V12.283C53.4154 12.4676 53.2985 12.5784 53.1139 12.7015C52.9908 12.8246 52.8 12.8923 52.6154 12.8923C52.4308 12.8923 52.2585 12.8307 52.1969 12.6461C52.1354 12.4615 52.0677 12.2153 52.0677 11.7846V5.02149H49.9754V11.92C49.9754 12.7815 50.1046 13.3907 50.4123 13.8215C50.72 14.2523 51.1385 14.4369 51.7539 14.4369C52.6092 14.4369 53.2985 14.0123 53.7292 13.1507H53.7846L53.9569 14.2461H55.5692V5.02149C55.5692 5.02149 53.4769 5.02149 53.4769 4.9661V4.95995ZM66.3385 6.2461C66.5846 6.2461 66.6954 6.3138 66.8185 6.43687C66.9415 6.62149 67.0031 6.79995 67.0646 7.10764C67.1262 7.41533 67.12 7.85226 67.12 8.46764V9.13841H65.5815V8.46764C65.5815 7.85226 65.5816 7.41533 65.6369 7.10764C65.6369 6.86149 65.7046 6.61533 65.8277 6.49226C65.9508 6.30764 66.1415 6.2461 66.3262 6.2461H66.3385ZM35.2677 6.31995C35.5754 6.31995 35.76 6.43072 35.8831 6.73841C36 7.0461 36.0554 7.53841 36.0554 8.21533V11.0953C36.0554 11.7723 36.0062 12.2646 35.8831 12.5723C35.76 12.88 35.5754 12.9907 35.2677 12.9907C34.96 12.9907 34.7815 12.88 34.6585 12.5723C34.5354 12.2646 34.4677 11.7723 34.4677 11.0953V8.21533C34.4677 7.53841 34.5354 7.0461 34.6585 6.73841C34.7815 6.43072 34.96 6.31995 35.2677 6.31995ZM59.6862 6.37533C59.8708 6.37533 60.0616 6.43687 60.1846 6.62149C60.3077 6.8061 60.3508 7.0338 60.4123 7.46457C60.4739 7.8338 60.4862 8.3938 60.4862 9.13226L60.5415 10.3015C60.5415 10.9784 60.5415 11.5261 60.4862 11.8953C60.4246 12.2646 60.3692 12.5599 60.1846 12.683C60.0616 12.8676 59.8769 12.9292 59.6308 12.9292C59.4462 12.9292 59.3169 12.8799 59.1323 12.8184C59.0092 12.7569 58.8923 12.6399 58.7692 12.4553V7.22457C58.8308 6.97841 58.9477 6.7938 59.1323 6.60918C59.3169 6.42456 59.5015 6.36303 59.6862 6.36303V6.37533Z" fill="white"/>
</g>
<defs>
<clipPath id="clip0_1_67">
<rect width="72" height="16" fill="white"/>
</clipPath>
</defs>
</svg>
