<svg width="132" height="28" viewBox="0 0 132 28" fill="none" xmlns="http://www.w3.org/2000/svg">
<g clip-path="url(#clip0_1_261)">
<path d="M96.1618 4.54639H97.1406V6.73151H99.7123V4.54639H100.691V10.0421H99.7123V7.62403H97.1406V10.0421H96.1618V4.54639Z" fill="white"/>
<path d="M107.671 10.0336H104.473C104.067 10.0375 103.664 9.97053 103.281 9.8358C102.93 9.71288 102.608 9.52078 102.333 9.27082C102.061 9.01912 101.847 8.7126 101.703 8.37172C101.548 7.99163 101.473 7.5838 101.482 7.17367C101.479 6.80275 101.554 6.43527 101.702 6.09465C101.849 5.75404 102.065 5.44771 102.337 5.19515C102.605 4.94736 102.918 4.75264 103.259 4.62139C103.977 4.34756 104.771 4.34756 105.49 4.62139C105.824 4.74898 106.132 4.93758 106.398 5.17756C106.67 5.43029 106.886 5.73665 107.033 6.07723C107.181 6.41781 107.255 6.7852 107.253 7.15605C107.257 7.41424 107.221 7.67148 107.147 7.91887C107.083 8.12454 106.991 8.31995 106.871 8.49923C106.767 8.65698 106.64 8.79913 106.495 8.92131C106.369 9.02729 106.234 9.12354 106.093 9.20926V9.22466H107.671V10.0336ZM104.337 5.28967C104.085 5.2872 103.835 5.33582 103.603 5.43257C103.383 5.52599 103.185 5.6637 103.021 5.83706C102.854 6.01176 102.724 6.21708 102.635 6.4416C102.541 6.68389 102.493 6.94214 102.497 7.20222C102.494 7.46797 102.541 7.73189 102.635 7.98043C102.721 8.2108 102.854 8.42161 103.023 8.60035C103.189 8.77376 103.388 8.91206 103.609 9.00703C103.844 9.1072 104.097 9.15736 104.352 9.15432C104.609 9.15668 104.865 9.1066 105.102 9.00703C105.326 8.91348 105.528 8.7751 105.697 8.60035C105.866 8.42147 105.998 8.21074 106.084 7.98043C106.179 7.73189 106.226 7.46797 106.223 7.20222C106.227 6.94214 106.18 6.68389 106.084 6.4416C105.997 6.21658 105.865 6.01115 105.697 5.83706C105.528 5.66441 105.326 5.52823 105.102 5.43697C104.859 5.33794 104.599 5.28788 104.337 5.28967Z" fill="white"/>
<path d="M25.3469 12.1022V10.1831H27.2138V7.56934H29.4774V10.1831H31.9592V12.1022H29.4774V16.0592C29.4582 16.4338 29.547 16.806 29.7331 17.132C29.902 17.3958 30.2385 17.5277 30.7425 17.5277C30.9645 17.5258 31.1858 17.5037 31.4038 17.4617C31.6066 17.4314 31.8001 17.3562 31.9702 17.2419V19.1368C31.6905 19.2607 31.393 19.3401 31.0886 19.372C30.7853 19.413 30.4799 19.435 30.1739 19.438C29.6727 19.4525 29.1725 19.3857 28.6928 19.2402C28.3396 19.1292 28.0254 18.9203 27.7868 18.6379C27.5544 18.3445 27.3978 17.9988 27.3306 17.631C27.2433 17.1724 27.202 16.7063 27.2072 16.2394V12.1022H25.3469Z" fill="white"/>
<path d="M34.7032 15.4875C34.7227 15.7894 34.8018 16.0845 34.9361 16.3558C35.0704 16.6271 35.2572 16.8692 35.4857 17.0681C35.9462 17.4472 36.5286 17.6478 37.1255 17.6331C37.6232 17.6505 38.116 17.5303 38.5494 17.2858C38.9336 17.0521 39.275 16.7547 39.5588 16.4064L41.1811 17.6287C40.718 18.231 40.1121 18.7092 39.4178 19.0202C38.7674 19.2952 38.0678 19.4358 37.3614 19.4335C36.7047 19.4377 36.0528 19.3229 35.4372 19.095C34.8564 18.8834 34.3242 18.5575 33.8723 18.1365C33.4257 17.7139 33.0695 17.2053 32.8254 16.6416C32.5613 16.0266 32.4299 15.363 32.4397 14.6939C32.4299 14.0249 32.5613 13.3613 32.8254 12.7462C33.0696 12.1826 33.4257 11.6741 33.8723 11.2513C34.3243 10.8305 34.8565 10.5046 35.4372 10.2929C36.0528 10.065 36.7047 9.95034 37.3614 9.95439C37.953 9.94764 38.5399 10.0598 39.0872 10.2841C39.5995 10.4966 40.0575 10.8212 40.4273 11.2338C40.8181 11.6829 41.1135 12.2064 41.2957 12.7726C41.5136 13.45 41.6186 14.1585 41.6065 14.8698V15.4875H34.7032ZM39.3318 13.7948C39.341 13.5048 39.2906 13.2159 39.1837 12.9459C39.0768 12.676 38.9157 12.4308 38.7103 12.2252C38.3077 11.8427 37.7486 11.6515 37.033 11.6515C36.7387 11.636 36.4443 11.6797 36.1671 11.7797C35.89 11.8798 35.6358 12.0343 35.4196 12.234C35.0075 12.6573 34.7518 13.2076 34.6945 13.7948H39.3318Z" fill="white"/>
<path d="M43.1075 4.99268H45.371V19.2114H43.1075V4.99268Z" fill="white"/>
<path d="M49.1334 15.4878C49.1539 15.7904 49.2344 16.0858 49.3702 16.3572C49.5061 16.6285 49.6945 16.8702 49.9246 17.0684C50.3884 17.4493 50.9751 17.6492 51.5755 17.6312C52.0731 17.6485 52.566 17.5283 52.9994 17.2838C53.3836 17.0501 53.7249 16.7527 54.0088 16.4045L55.631 17.6268C55.1679 18.2291 54.562 18.7072 53.8678 19.0183C53.213 19.2975 52.508 19.4404 51.7959 19.4381C51.1393 19.4423 50.4873 19.3276 49.8718 19.0996C49.2909 18.8881 48.7588 18.5621 48.3068 18.1411C47.8602 17.7185 47.5041 17.21 47.2599 16.6463C46.9959 16.0312 46.8644 15.3676 46.8742 14.6986C46.8644 14.0296 46.9959 13.366 47.2599 12.7509C47.5041 12.1872 47.8603 11.6788 48.3068 11.2561C48.7588 10.8352 49.291 10.5092 49.8718 10.2976C50.4872 10.0689 51.1392 9.95352 51.7959 9.95683C52.3876 9.95014 52.9745 10.0623 53.5217 10.2866C54.0341 10.4991 54.4921 10.8236 54.8618 11.2363C55.2527 11.6854 55.548 12.2088 55.7302 12.7751C55.9481 13.4524 56.0531 14.1609 56.041 14.8722V15.4878H49.1334ZM53.7619 13.7951C53.7712 13.505 53.7208 13.2161 53.6138 12.9462C53.507 12.6763 53.3459 12.431 53.1404 12.2255C52.7378 11.843 52.1787 11.6517 51.4631 11.6517C51.1688 11.6363 50.8743 11.68 50.5973 11.78C50.3201 11.88 50.0659 12.0345 49.8497 12.2343C49.4376 12.6576 49.1819 13.2079 49.1245 13.7951H53.7619Z" fill="white"/>
<path d="M57.5001 10.1831H59.6491V11.5372H59.6865C59.9893 11.0069 60.4521 10.5854 61.009 10.3325C61.5721 10.0797 62.1834 9.95147 62.8009 9.9566C63.4421 9.94668 64.0783 10.0718 64.6678 10.3237C65.2034 10.5581 65.684 10.9019 66.0784 11.3327C66.4718 11.7689 66.7717 12.2806 66.96 12.8364C67.1649 13.4357 67.267 14.0652 67.2619 14.6983C67.2667 15.3332 67.1577 15.9638 66.9402 16.5603C66.7406 17.1145 66.4369 17.6255 66.0453 18.0662C65.6589 18.4949 65.1866 18.8379 64.6589 19.073C64.1043 19.3199 63.503 19.4451 62.8957 19.4401C62.5146 19.4455 62.1345 19.4011 61.765 19.3083C61.4629 19.2306 61.1713 19.1169 60.8965 18.9697C60.6668 18.8478 60.4517 18.7003 60.2552 18.53C60.0933 18.3911 59.9456 18.2364 59.8144 18.0684H59.7571V23.5004H57.5001V10.1831ZM65.005 14.6983C65.0059 14.352 64.9455 14.0082 64.8265 13.6827C64.7099 13.3617 64.53 13.0672 64.2975 12.8166C64.0472 12.5505 63.7449 12.3383 63.4092 12.1933C63.0735 12.0483 62.7115 11.9735 62.3458 11.9735C61.9799 11.9735 61.618 12.0483 61.2823 12.1933C60.9466 12.3383 60.6443 12.5505 60.394 12.8166C60.1613 13.0671 59.9814 13.3616 59.8651 13.6827C59.6263 14.3389 59.6263 15.0578 59.8651 15.714C59.9814 16.0352 60.1613 16.3297 60.394 16.5801C60.6441 16.8465 60.9464 17.059 61.2821 17.2041C61.6178 17.3493 61.9798 17.4243 62.3458 17.4243C62.7117 17.4243 63.0737 17.3493 63.4094 17.2041C63.7451 17.059 64.0474 16.8465 64.2975 16.5801C64.5301 16.3296 64.71 16.035 64.8265 15.714C64.9455 15.3886 65.0059 15.0448 65.005 14.6983Z" fill="white"/>
<path d="M68.2317 14.6985C68.2223 14.0295 68.3532 13.3659 68.6178 12.7508C68.8615 12.1871 69.2179 11.6786 69.6647 11.256C70.1163 10.8351 70.6489 10.5091 71.2294 10.2975C72.4714 9.84616 73.8335 9.84616 75.0755 10.2975C75.656 10.5091 76.1886 10.8351 76.6402 11.256C77.087 11.6786 77.4428 12.1871 77.6871 12.7508C77.9517 13.3657 78.084 14.0293 78.0752 14.6985C78.084 15.3677 77.9517 16.0313 77.6871 16.6462C77.4428 17.2099 77.087 17.7183 76.6402 18.141C76.1886 18.562 75.656 18.888 75.0755 19.0995C73.8335 19.5508 72.4714 19.5508 71.2294 19.0995C70.6482 18.888 70.1163 18.562 69.6647 18.141C69.2179 17.7183 68.8615 17.2098 68.6178 16.6462C68.3532 16.0311 68.2223 15.3675 68.2317 14.6985ZM70.4957 14.6985C70.4943 15.0449 70.5544 15.3888 70.6739 15.7141C70.79 16.0354 70.9702 16.3299 71.2031 16.5802C71.4528 16.8467 71.7552 17.0591 72.0907 17.2043C72.4268 17.3495 72.7886 17.4244 73.1545 17.4244C73.5203 17.4244 73.8828 17.3495 74.2183 17.2043C74.5538 17.0591 74.8561 16.8467 75.1066 16.5802C75.3388 16.3297 75.519 16.0352 75.6351 15.7141C75.8741 15.058 75.8741 14.339 75.6351 13.6829C75.519 13.3618 75.3388 13.0673 75.1066 12.8168C74.8561 12.5506 74.5538 12.3385 74.2183 12.1935C73.8821 12.0484 73.5203 11.9736 73.1545 11.9736C72.7886 11.9736 72.4268 12.0484 72.0914 12.1935C71.7552 12.3385 71.4528 12.5506 71.2031 12.8168C70.9702 13.0671 70.79 13.3617 70.6739 13.6829C70.5544 14.0082 70.4943 14.3521 70.4957 14.6985Z" fill="white"/>
<path d="M79.5056 10.1831H81.7715V11.612H81.8087C82.0368 11.11 82.4067 10.6852 82.8738 10.3897C83.3551 10.0942 83.9106 9.9416 84.4756 9.95004C84.6119 9.9499 84.7476 9.96239 84.8813 9.98743C85.0136 10.0138 85.1479 10.0446 85.2869 10.0819V12.2627C85.0986 12.2128 84.9137 12.1718 84.7314 12.1396C84.5546 12.1121 84.375 12.0996 84.1961 12.1022C83.7527 12.0815 83.3119 12.1826 82.9217 12.3946C82.6322 12.559 82.3811 12.784 82.186 13.0541C82.0267 13.2814 81.9113 13.5364 81.8465 13.8059C81.7999 13.991 81.7715 14.1803 81.7628 14.3709V19.2072H79.5056V10.1831Z" fill="white"/>
<path d="M85.6966 12.1022V10.1831H87.5637V7.56934H89.8276V10.1831H92.3157V12.1022H89.8276V16.0592C89.8081 16.4335 89.8958 16.8056 90.0808 17.132C90.2495 17.3958 90.5864 17.5277 91.0906 17.5277C91.312 17.5258 91.5334 17.5037 91.7514 17.4617C91.9546 17.4314 92.1476 17.3562 92.3177 17.2419V19.1368C92.0383 19.2607 91.7406 19.3401 91.4362 19.372C91.1331 19.413 90.8273 19.435 90.5215 19.438C90.022 19.4542 89.5232 19.3896 89.0446 19.2468C88.6916 19.1358 88.3778 18.9269 88.1388 18.6444C87.908 18.3507 87.7527 18.005 87.6872 17.6376C87.5995 17.179 87.5583 16.7128 87.5637 16.2461V12.1022H85.6966Z" fill="white"/>
<path d="M0 8.4377C0 7.13292 1.05773 6.0752 2.3625 6.0752H11.1375C12.4423 6.0752 13.5 7.13292 13.5 8.4377V17.2127C13.5 18.5175 12.4423 19.5752 11.1375 19.5752H2.3625C1.05773 19.5752 0 18.5175 0 17.2127V8.4377Z" fill="#854AF6"/>
<path d="M20.25 8.4376C20.25 12.3519 17.0768 15.5251 13.1625 15.5251C9.24818 15.5251 6.075 12.3519 6.075 8.4376C6.075 4.52328 9.24818 1.3501 13.1625 1.3501C17.0768 1.3501 20.25 4.52328 20.25 8.4376Z" fill="#FF6447"/>
<path d="M21.3496 16.4817C22.6761 17.2655 22.6761 19.1847 21.3496 19.9685L12.5052 25.1947C11.1553 25.9924 9.45 25.0194 9.45 23.4514V12.9988C9.45 11.4308 11.1553 10.4577 12.5052 11.2554L21.3496 16.4817Z" fill="#00BBE6"/>
</g>
<path d="M131 0.134277V27.5405H133V0.134277H131Z" fill="white" fill-opacity="0.7" mask="url(#path-1-inside-1_1_261)"/>
<defs>
<clipPath id="clip0_1_261">
<rect width="108" height="27.675" fill="white"/>
</clipPath>
</defs>
</svg>
