<svg width="24" height="24" viewBox="0 0 24 24" fill="none" xmlns="http://www.w3.org/2000/svg">
<path d="M9.52235 15.107L16.0044 11.7588L9.52235 8.37048V15.107V15.107ZM12 3.56249C17.0491 3.56249 20.3972 3.80356 20.3972 3.80356C20.866 3.85714 21.8972 3.85714 22.8079 4.82142C22.8079 4.82142 23.5445 5.54462 23.7588 7.20532C24.0133 9.14726 23.9999 11.0892 23.9999 11.0892V12.9106C23.9999 12.9106 24.0133 14.8525 23.7588 16.7945C23.5445 18.4418 22.8079 19.1784 22.8079 19.1784C21.8972 20.1293 20.866 20.1293 20.3972 20.1828C20.3972 20.1828 17.0491 20.4373 12 20.4373C5.75898 20.3837 3.84383 20.1962 3.84383 20.1962C3.30813 20.1025 2.10277 20.1293 1.19207 19.1784C1.19207 19.1784 0.45546 18.4418 0.241197 16.7945C-0.0132615 14.8525 0.000121223 12.9106 0.000121223 12.9106V11.0892C0.000121223 11.0892 -0.0132615 9.14724 0.241197 7.20529C0.455484 5.5446 1.19207 4.8214 1.19207 4.8214C2.10277 3.85712 3.13401 3.85712 3.60276 3.80354C3.60276 3.80354 6.95093 3.56246 12 3.56246V3.56249Z" fill="#505050"/>
</svg>
