<svg width="145" height="37" viewBox="0 0 145 37" fill="none" xmlns="http://www.w3.org/2000/svg">
<path d="M128.55 6.0798H129.858V9.00088H133.296V6.0798H134.604V13.4266H133.296V10.194H129.858V13.4266H128.55V6.0798Z" fill="#161616"/>
<path d="M143.936 13.4148H139.66C139.118 13.42 138.578 13.3305 138.067 13.1504C137.597 12.986 137.167 12.7292 136.8 12.3951C136.436 12.0586 136.149 11.6489 135.957 11.1932C135.75 10.6851 135.649 10.1399 135.662 9.59161C135.658 9.09577 135.759 8.60452 135.955 8.14918C136.152 7.69385 136.442 7.28434 136.805 6.94671C137.163 6.61547 137.581 6.35517 138.037 6.17971C138.997 5.81365 140.059 5.81365 141.019 6.17971C141.467 6.35027 141.878 6.6024 142.233 6.92321C142.596 7.26106 142.886 7.6706 143.083 8.12589C143.28 8.58118 143.38 9.07231 143.376 9.56806C143.382 9.91321 143.334 10.2571 143.234 10.5878C143.15 10.8627 143.026 11.124 142.866 11.3636C142.726 11.5745 142.557 11.7645 142.363 11.9279C142.194 12.0695 142.014 12.1982 141.826 12.3128V12.3334H143.936V13.4148ZM139.478 7.07308C139.141 7.06978 138.808 7.13476 138.497 7.2641C138.203 7.38898 137.939 7.57308 137.719 7.80483C137.496 8.03837 137.321 8.31284 137.203 8.61297C137.077 8.93687 137.014 9.28211 137.018 9.62978C137.015 9.98503 137.077 10.3378 137.203 10.6701C137.319 10.9781 137.496 11.2599 137.722 11.4988C137.944 11.7306 138.21 11.9155 138.505 12.0425C138.819 12.1764 139.158 12.2434 139.499 12.2394C139.843 12.2425 140.184 12.1756 140.5 12.0425C140.8 11.9174 141.071 11.7324 141.296 11.4988C141.523 11.2597 141.699 10.978 141.814 10.6701C141.94 10.3378 142.004 9.98503 142 9.62978C142.005 9.28211 141.941 8.93687 141.814 8.61297C141.697 8.31218 141.521 8.03755 141.296 7.80483C141.071 7.57403 140.8 7.39199 140.5 7.26998C140.176 7.1376 139.828 7.07068 139.478 7.07308Z" fill="#161616"/>
<path d="M33.8839 16.1802V13.6147H36.3796V10.1206H39.4055V13.6147H42.7233V16.1802H39.4055V21.4699C39.3799 21.9706 39.4986 22.4682 39.7473 22.904C39.9732 23.2566 40.423 23.4329 41.0968 23.4329C41.3935 23.4304 41.6894 23.4009 41.9807 23.3448C42.2519 23.3042 42.5106 23.2037 42.738 23.0509V25.584C42.364 25.7497 41.9663 25.8558 41.5594 25.8985C41.154 25.9532 40.7457 25.9827 40.3367 25.9867C39.6666 26.0061 38.9979 25.9167 38.3567 25.7222C37.8845 25.5738 37.4645 25.2946 37.1456 24.917C36.8349 24.5249 36.6255 24.0627 36.5357 23.5711C36.419 22.9579 36.3637 22.3349 36.3708 21.7108V16.1802H33.8839Z" fill="#161616"/>
<path d="M46.3915 20.7058C46.4175 21.1094 46.5232 21.5039 46.7028 21.8666C46.8823 22.2292 47.132 22.5528 47.4375 22.8187C48.0531 23.3256 48.8316 23.5937 49.6296 23.574C50.2949 23.5972 50.9536 23.4365 51.533 23.1097C52.0466 22.7973 52.503 22.3997 52.8825 21.9342L55.0511 23.5681C54.432 24.3734 53.622 25.0126 52.6939 25.4283C51.8245 25.7959 50.8893 25.9839 49.9449 25.9808C49.0671 25.9864 48.1956 25.833 47.3727 25.5283C46.5962 25.2455 45.8848 24.8097 45.2807 24.2469C44.6837 23.682 44.2075 23.0022 43.8811 22.2486C43.5282 21.4264 43.3525 20.5393 43.3655 19.6449C43.3525 18.7506 43.5282 17.8635 43.8811 17.0412C44.2076 16.2877 44.6837 15.608 45.2807 15.0428C45.8849 14.4803 46.5963 14.0446 47.3727 13.7616C48.1956 13.457 49.0671 13.3037 49.9449 13.3091C50.7358 13.3001 51.5204 13.45 52.2519 13.7499C52.9369 14.0339 53.5491 14.4678 54.0434 15.0194C54.5659 15.6197 54.9608 16.3196 55.2043 17.0765C55.4956 17.9821 55.636 18.9292 55.6197 19.88V20.7058H46.3915ZM52.579 18.443C52.5913 18.0552 52.5239 17.669 52.381 17.3082C52.2381 16.9473 52.0227 16.6195 51.7481 16.3447C51.2099 15.8334 50.4625 15.5778 49.5059 15.5778C49.1125 15.5571 48.7189 15.6155 48.3484 15.7492C47.978 15.8829 47.6381 16.0895 47.3491 16.3565C46.7982 16.9223 46.4564 17.658 46.3797 18.443H52.579Z" fill="#161616"/>
<path d="M57.6263 6.67636H60.6522V25.684H57.6263V6.67636Z" fill="#161616"/>
<path d="M65.6818 20.7058C65.7092 21.1103 65.8169 21.5053 65.9984 21.868C66.18 22.2307 66.4319 22.5538 66.7395 22.8187C67.3595 23.3279 68.1437 23.5952 68.9465 23.5711C69.6117 23.5943 70.2705 23.4336 70.8499 23.1067C71.3635 22.7943 71.8198 22.3968 72.1993 21.9313L74.3678 23.5652C73.7487 24.3704 72.9388 25.0096 72.0107 25.4254C71.1355 25.7987 70.193 25.9897 69.2411 25.9867C68.3633 25.9923 67.4917 25.8389 66.6689 25.5341C65.8924 25.2513 65.181 24.8156 64.5769 24.2528C63.9798 23.6878 63.5037 23.008 63.1773 22.2545C62.8243 21.4323 62.6486 20.5452 62.6617 19.6509C62.6486 18.7564 62.8243 17.8694 63.1773 17.0471C63.5038 16.2936 63.9799 15.6139 64.5769 15.0488C65.1811 14.4862 65.8925 14.0505 66.6689 13.7675C67.4916 13.4619 68.3631 13.3076 69.2411 13.312C70.032 13.303 70.8166 13.4529 71.5481 13.7528C72.2331 14.0368 72.8453 14.4707 73.3395 15.0224C73.8621 15.6227 74.2569 16.3225 74.5005 17.0794C74.7918 17.9849 74.9321 18.932 74.9159 19.8829V20.7058H65.6818ZM71.8692 18.443C71.8816 18.0552 71.8142 17.669 71.6713 17.3082C71.5284 16.9473 71.313 16.6195 71.0384 16.3448C70.5002 15.8334 69.7528 15.5778 68.7961 15.5778C68.4027 15.5571 68.0091 15.6155 67.6387 15.7492C67.2682 15.8829 66.9284 16.0895 66.6393 16.3565C66.0885 16.9223 65.7467 17.658 65.67 18.443H71.8692Z" fill="#161616"/>
<path d="M76.8664 13.6147H79.7392V15.4249H79.7893C80.1941 14.716 80.8127 14.1525 81.5572 13.8145C82.3099 13.4766 83.1271 13.3051 83.9525 13.312C84.8098 13.2987 85.6602 13.4659 86.4482 13.8028C87.1643 14.1161 87.8067 14.5756 88.3339 15.1516C88.8598 15.7347 89.2608 16.4187 89.5125 17.1617C89.7864 17.9628 89.9229 18.8044 89.9161 19.6508C89.9224 20.4994 89.7768 21.3424 89.486 22.1399C89.2192 22.8807 88.8132 23.5639 88.2897 24.1529C87.7732 24.726 87.1419 25.1846 86.4364 25.4988C85.695 25.8289 84.8911 25.9963 84.0793 25.9896C83.5698 25.9968 83.0617 25.9375 82.5678 25.8133C82.164 25.7095 81.7742 25.5575 81.4068 25.3607C81.0998 25.1977 80.8121 25.0006 80.5494 24.773C80.333 24.5872 80.1356 24.3805 79.9602 24.1559H79.8836V31.4174H76.8664V13.6147ZM86.899 19.6508C86.9002 19.1878 86.8195 18.7281 86.6604 18.2931C86.5045 17.8639 86.2641 17.4702 85.9532 17.1353C85.6187 16.7795 85.2145 16.4959 84.7658 16.3021C84.317 16.1082 83.8331 16.0082 83.3442 16.0082C82.8551 16.0082 82.3713 16.1082 81.9225 16.3021C81.4738 16.4959 81.0696 16.7795 80.735 17.1353C80.424 17.4701 80.1835 17.8638 80.028 18.2931C79.7087 19.1703 79.7087 20.1313 80.028 21.0085C80.1834 21.4378 80.4239 21.8315 80.735 22.1663C81.0694 22.5225 81.4734 22.8064 81.9223 23.0005C82.371 23.1946 82.855 23.2948 83.3442 23.2948C83.8333 23.2948 84.3173 23.1946 84.7661 23.0005C85.2148 22.8064 85.6189 22.5225 85.9532 22.1663C86.2642 21.8315 86.5046 21.4377 86.6604 21.0085C86.8195 20.5735 86.9003 20.1138 86.899 19.6508Z" fill="#161616"/>
<path d="M91.2125 19.6508C91.1999 18.7564 91.3749 17.8693 91.7287 17.0471C92.0544 16.2936 92.5308 15.6139 93.1282 15.0488C93.7319 14.4862 94.4438 14.0505 95.2198 13.7675C96.8801 13.1642 98.7011 13.1642 100.361 13.7675C101.137 14.0505 101.849 14.4862 102.453 15.0488C103.05 15.6139 103.526 16.2936 103.853 17.0471C104.206 17.8692 104.383 18.7563 104.371 19.6508C104.383 20.5453 104.206 21.4324 103.853 22.2545C103.526 23.008 103.05 23.6878 102.453 24.2528C101.849 24.8156 101.137 25.2513 100.361 25.5341C98.7011 26.1374 96.8801 26.1374 95.2198 25.5341C94.4429 25.2513 93.7319 24.8156 93.1282 24.2528C92.5308 23.6878 92.0544 23.0079 91.7287 22.2545C91.3749 21.4323 91.1999 20.5452 91.2125 19.6508ZM94.239 19.6508C94.2372 20.1138 94.3175 20.5736 94.4772 21.0085C94.6324 21.4379 94.8733 21.8317 95.1846 22.1663C95.5185 22.5225 95.9228 22.8064 96.3712 23.0005C96.8206 23.1946 97.3042 23.2948 97.7933 23.2948C98.2824 23.2948 98.7669 23.1946 99.2154 23.0005C99.6639 22.8064 100.068 22.5225 100.403 22.1663C100.713 21.8314 100.954 21.4377 101.109 21.0085C101.429 20.1313 101.429 19.1703 101.109 18.2931C100.954 17.8639 100.713 17.4702 100.403 17.1353C100.068 16.7795 99.6639 16.4959 99.2154 16.3021C98.766 16.1082 98.2824 16.0082 97.7933 16.0082C97.3042 16.0082 96.8206 16.1082 96.3721 16.3021C95.9228 16.4959 95.5185 16.7795 95.1846 17.1353C94.8733 17.47 94.6324 17.8638 94.4772 18.2931C94.3175 18.728 94.2372 19.1878 94.239 19.6508Z" fill="#161616"/>
<path d="M106.283 13.6147H109.313V15.5249H109.362C109.667 14.8537 110.162 14.2859 110.786 13.8909C111.43 13.4958 112.172 13.2919 112.927 13.3031C113.11 13.303 113.291 13.3196 113.47 13.3531C113.647 13.3884 113.826 13.4296 114.012 13.4795V16.3947C113.76 16.3281 113.513 16.2732 113.269 16.2302C113.033 16.1934 112.793 16.1767 112.554 16.1802C111.961 16.1525 111.372 16.2876 110.85 16.5711C110.463 16.7909 110.127 17.0915 109.867 17.4527C109.654 17.7565 109.499 18.0974 109.413 18.4577C109.351 18.7051 109.313 18.9581 109.301 19.2129V25.6781H106.283V13.6147Z" fill="#161616"/>
<path d="M114.56 16.1802V13.6147H117.056V10.1206H120.082V13.6147H123.408V16.1802H120.082V21.4699C120.056 21.9702 120.173 22.4676 120.42 22.904C120.646 23.2566 121.096 23.4329 121.77 23.4329C122.066 23.4304 122.362 23.4009 122.654 23.3448C122.925 23.3042 123.183 23.2037 123.411 23.0509V25.584C123.037 25.7497 122.639 25.8558 122.232 25.8985C121.827 25.9532 121.418 25.9827 121.01 25.9867C120.342 26.0083 119.675 25.922 119.035 25.731C118.563 25.5827 118.144 25.3034 117.824 24.9258C117.516 24.5332 117.308 24.071 117.221 23.5798C117.103 22.9668 117.048 22.3436 117.056 21.7197V16.1802H114.56Z" fill="#161616"/>
<path d="M0 11.2812C0 9.53702 1.41397 8.12305 3.1582 8.12305H14.8887C16.6329 8.12305 18.0469 9.53702 18.0469 11.2812V23.0117C18.0469 24.7559 16.6329 26.1699 14.8887 26.1699H3.1582C1.41397 26.1699 0 24.7559 0 23.0117V11.2812Z" fill="#854AF6"/>
<path d="M27.0703 11.2812C27.0703 16.5139 22.8284 20.7559 17.5957 20.7559C12.363 20.7559 8.12109 16.5139 8.12109 11.2812C8.12109 6.04857 12.363 1.80664 17.5957 1.80664C22.8284 1.80664 27.0703 6.04857 27.0703 11.2812Z" fill="#FF6447"/>
<path d="M28.5403 22.0347C30.3135 23.0825 30.3135 25.648 28.5403 26.6958L16.717 33.6823C14.9124 34.7487 12.6328 33.4479 12.6328 31.3518V17.3787C12.6328 15.2826 14.9124 13.9818 16.717 15.0482L28.5403 22.0347Z" fill="#00BBE6"/>
</svg>
