<svg width="24" height="24" viewBox="0 0 24 24" fill="none" xmlns="http://www.w3.org/2000/svg">
<path d="M12 1.71436C17.6786 1.71436 22.2857 6.32149 22.2857 12.0001C22.2857 16.5402 19.3393 20.3974 15.2545 21.7634C14.7321 21.8572 14.5446 21.5358 14.5446 21.2679C14.5446 20.9331 14.558 19.8215 14.558 18.442C14.558 17.4777 14.2366 16.8617 13.8616 16.5402C16.1518 16.2858 18.5625 15.4152 18.5625 11.4644C18.5625 10.3394 18.1607 9.42864 17.5044 8.70543C17.6116 8.43757 17.9598 7.39293 17.3973 5.9733C16.5402 5.70543 14.5714 7.03134 14.5714 7.03134C13.7545 6.80367 12.8705 6.68313 12 6.68313C11.1295 6.68313 10.2455 6.80367 9.42858 7.03134C9.42858 7.03134 7.45983 5.70546 6.60269 5.9733C6.04019 7.39293 6.38841 8.43759 6.49556 8.70543C5.83931 9.42864 5.43752 10.3394 5.43752 11.4644C5.43752 15.4019 7.83485 16.2858 10.125 16.5402C9.83039 16.8081 9.56252 17.2634 9.46877 17.9197C8.87948 18.1876 7.37948 18.6429 6.48216 17.0626C5.91965 16.0849 4.90179 16.0045 4.90179 16.0045C3.89733 15.9911 4.83483 16.634 4.83483 16.634C5.50446 16.942 5.97321 18.134 5.97321 18.134C6.57588 19.9688 9.44196 19.3527 9.44196 19.3527C9.44196 20.2099 9.45534 21.0134 9.45534 21.2679C9.45534 21.5358 9.26784 21.8572 8.74551 21.7634C4.66069 20.3974 1.71426 16.5402 1.71426 12.0001C1.71426 6.32149 6.3214 1.71436 12 1.71436H12ZM5.61162 16.4867C5.6384 16.4331 5.59823 16.3661 5.51787 16.326C5.4375 16.2992 5.37054 16.3126 5.34375 16.3528C5.31696 16.4063 5.35713 16.4733 5.4375 16.5135C5.50446 16.5536 5.58483 16.5403 5.61162 16.4867ZM6.02679 16.942C6.08037 16.9019 6.06696 16.8081 6 16.7277C5.93304 16.6608 5.83929 16.634 5.78571 16.6876C5.73213 16.7277 5.74554 16.8215 5.8125 16.9019C5.87946 16.9688 5.97321 16.9956 6.02679 16.942ZM6.42858 17.5447C6.49554 17.4911 6.49554 17.384 6.42858 17.2902C6.375 17.1965 6.26787 17.1563 6.2009 17.2099C6.13394 17.25 6.13394 17.3572 6.2009 17.4509C6.26787 17.5447 6.37502 17.5849 6.42858 17.5447ZM6.99108 18.1072C7.04466 18.0536 7.01787 17.9331 6.9375 17.8527C6.84375 17.759 6.72321 17.7456 6.66963 17.8126C6.60267 17.8661 6.62946 17.9867 6.72321 18.067C6.81696 18.1608 6.9375 18.1742 6.99108 18.1072ZM7.75446 18.442C7.78125 18.3617 7.70088 18.2679 7.58034 18.2277C7.47321 18.2009 7.35267 18.2411 7.32588 18.3215C7.29909 18.4019 7.37946 18.4956 7.5 18.5224C7.60713 18.5625 7.72767 18.5224 7.75446 18.442ZM8.59821 18.509C8.59821 18.4152 8.49108 18.3483 8.37054 18.3617C8.25 18.3617 8.15625 18.4286 8.15625 18.509C8.15625 18.6027 8.25 18.6697 8.38392 18.6563C8.50446 18.6563 8.59821 18.5894 8.59821 18.509ZM9.375 18.3751C9.36162 18.2947 9.25446 18.2411 9.13392 18.2545C9.01338 18.2813 8.93304 18.3617 8.94642 18.4554C8.9598 18.5358 9.06696 18.5893 9.1875 18.5625C9.30804 18.5358 9.38838 18.4554 9.375 18.3751Z" fill="#505050"/>
</svg>
