<svg width="27" height="27" viewBox="0 0 27 27" fill="none" xmlns="http://www.w3.org/2000/svg">
<path d="M10.7922 12.3423C10.1824 12.3423 9.70203 12.8767 9.70203 13.5292C9.70203 14.1794 10.1937 14.716 10.7922 14.716C11.4008 14.716 11.8811 14.1794 11.8811 13.5292C11.8935 12.8755 11.4008 12.3423 10.7922 12.3423ZM14.6936 12.3423C14.0839 12.3423 13.6035 12.8767 13.6035 13.5292C13.6035 14.1794 14.0951 14.716 14.6936 14.716C15.3023 14.716 15.7826 14.1794 15.7826 13.5292C15.7815 12.8755 15.3023 12.3423 14.6936 12.3423Z" fill="#505050"/>
<path d="M19.8877 3.375H5.56538C4.35825 3.375 3.375 4.35825 3.375 5.57662V20.0261C3.375 21.2445 4.35825 22.2277 5.56538 22.2277H17.685L17.1169 20.2489L18.486 21.5212L19.7786 22.7183L22.0781 24.75V5.57662C22.0781 4.35825 21.0949 3.375 19.8877 3.375ZM15.7613 17.3329C15.7613 17.3329 15.3765 16.8739 15.057 16.4655C16.4565 16.0695 16.9909 15.1942 16.9909 15.1942C16.5521 15.4822 16.1359 15.687 15.7613 15.8265C15.2269 16.0492 14.715 16.1989 14.2121 16.2855C13.1861 16.4767 12.2456 16.4239 11.4435 16.2743C10.8349 16.1561 10.3117 15.9851 9.873 15.813C9.62775 15.7174 9.35888 15.6015 9.09338 15.4519C9.06075 15.4282 9.02925 15.4193 8.99775 15.3979C8.97525 15.3866 8.96513 15.3765 8.95388 15.3641C8.7615 15.2584 8.65462 15.1841 8.65462 15.1841C8.65462 15.1841 9.16762 16.0391 10.5255 16.4452C10.2049 16.8503 9.80888 17.3329 9.80888 17.3329C7.4475 17.2575 6.55087 15.7084 6.55087 15.7084C6.55087 12.267 8.08988 9.47813 8.08988 9.47813C9.62887 8.32275 11.0925 8.35538 11.0925 8.35538L11.1994 8.48362C9.27562 9.0405 8.388 9.88425 8.388 9.88425C8.388 9.88425 8.62425 9.756 9.01912 9.57487C10.1621 9.07312 11.07 8.93363 11.4446 8.901C11.5087 8.89088 11.5627 8.87963 11.6269 8.87963C12.2794 8.79413 13.0163 8.77275 13.7846 8.85825C14.8005 8.97638 15.8918 9.27563 17.0021 9.88425C17.0021 9.88425 16.1572 9.08325 14.3404 8.5275L14.49 8.3565C14.49 8.3565 15.9548 8.32387 17.4926 9.47925C17.4926 9.47925 19.0316 12.2681 19.0316 15.7095C19.0316 15.7095 18.1237 17.2575 15.7613 17.3329Z" fill="#505050"/>
</svg>
