<svg width="24" height="24" viewBox="0 0 24 24" fill="none" xmlns="http://www.w3.org/2000/svg">
<path d="M22.5536 5.4644C21.9643 6.32153 21.2277 7.08494 20.3839 7.70102C20.3973 7.88852 20.3973 8.07602 20.3973 8.26352C20.3973 13.9823 16.0446 20.5716 8.08928 20.5716C5.6384 20.5716 3.36161 19.8617 1.44641 18.6296C1.79462 18.6698 2.12945 18.6832 2.49104 18.6832C4.51337 18.6832 6.37497 18.0001 7.86158 16.835C5.95979 16.7948 4.36604 15.5492 3.81695 13.835C4.08482 13.8751 4.35266 13.9019 4.63391 13.9019C5.02229 13.9019 5.4107 13.8483 5.77229 13.7546C3.79016 13.3528 2.30354 11.6117 2.30354 9.50905V9.45548C2.87943 9.7769 3.54908 9.9778 4.25891 10.0046C3.09374 9.2278 2.33033 7.90192 2.33033 6.40192C2.33033 5.59834 2.54462 4.86175 2.91962 4.21888C5.04908 6.84388 8.24999 8.55817 11.8393 8.74567C11.7723 8.42425 11.7321 8.08942 11.7321 7.75459C11.7321 5.37067 13.6607 3.42871 16.058 3.42871C17.3035 3.42871 18.4285 3.95104 19.2187 4.79479C20.1964 4.60729 21.1339 4.24567 21.9643 3.75016C21.6428 4.75462 20.9598 5.59837 20.0625 6.13408C20.933 6.04033 21.7768 5.79925 22.5535 5.46445L22.5536 5.4644Z" fill="#505050"/>
</svg>
