<svg width="24" height="24" viewBox="0 0 24 24" fill="none" xmlns="http://www.w3.org/2000/svg">
<path d="M18.4286 1.71436C20.558 1.71436 22.2857 3.44203 22.2857 5.57149V18.4286C22.2857 20.5581 20.558 22.2858 18.4286 22.2858H15.9107V14.317H18.5759L18.9777 11.2099H15.9107V9.22774C15.9107 8.33041 16.1518 7.72774 17.4509 7.72774L19.0848 7.71436V4.94203C18.8036 4.90186 17.8259 4.82149 16.7009 4.82149C14.3303 4.82149 12.6964 6.26791 12.6964 8.9197V11.2099H10.0178V14.317H12.6964V22.2858H5.57143C3.44197 22.2858 1.71429 20.5581 1.71429 18.4286V5.57149C1.71429 3.44203 3.44197 1.71436 5.57143 1.71436H18.4286Z" fill="#505050"/>
</svg>
